<svg version="1.1" id="Layer_1" xmlns="http://www.w3.org/2000/svg" xmlns:xlink="http://www.w3.org/1999/xlink" x="0px" y="0px"
	 width="100%" viewBox="0 0 1536 1024" enable-background="new 0 0 1536 1024" xml:space="preserve">
<path fill="#FFFFFF" opacity="1.000000" stroke="none" 
	d="
M968.000000,1025.000000 
	C645.333313,1025.000000 323.166656,1025.000000 1.000000,1025.000000 
	C1.000000,683.666687 1.000000,342.333344 1.000000,1.000000 
	C513.000000,1.000000 1025.000000,1.000000 1537.000000,1.000000 
	C1537.000000,342.333344 1537.000000,683.666687 1537.000000,1025.000000 
	C1347.500000,1025.000000 1158.000000,1025.000000 968.000000,1025.000000 
M1070.046143,546.092896 
	C1070.046143,546.092896 1070.347900,546.352295 1071.024048,546.028076 
	C1073.751343,544.041931 1072.469971,546.760681 1072.926270,547.583130 
	C1073.723755,549.020691 1070.911133,552.152649 1075.874634,552.159241 
	C1078.245117,552.104370 1080.615723,552.049500 1083.627075,552.215088 
	C1085.416748,552.140442 1087.206543,552.065857 1089.786377,552.126221 
	C1090.852295,552.086060 1091.918335,552.045898 1093.478394,552.249512 
	C1094.009888,551.150391 1095.003052,550.052124 1095.005005,548.952087 
	C1095.046875,524.697693 1094.978394,500.443115 1094.933105,476.188568 
	C1094.926758,472.759003 1094.932251,469.329437 1094.932251,465.760834 
	C1087.919800,465.760834 1081.301270,465.730896 1074.684204,465.817688 
	C1074.155151,465.824615 1073.636597,466.637207 1072.986572,467.995575 
	C1072.974976,483.657837 1073.149292,499.323151 1072.891724,514.981384 
	C1072.692505,527.088501 1065.342285,534.311401 1054.001831,534.244019 
	C1042.974121,534.178528 1035.260864,526.362122 1035.035400,514.808350 
	C1034.873047,506.480011 1034.928345,498.147217 1034.909790,489.816345 
	C1034.892578,482.049866 1034.906006,474.283356 1034.906006,466.257965 
	C1027.204346,466.257965 1019.967163,466.257965 1012.241821,466.257965 
	C1012.821167,486.302734 1012.531128,506.130096 1014.236694,525.784302 
	C1015.589111,541.368103 1028.219727,551.871765 1044.621582,553.712402 
	C1053.593018,554.456970 1062.073486,553.328552 1069.015137,547.004517 
	C1069.015137,547.004517 1069.245483,547.265137 1069.745850,547.168030 
	C1069.938721,546.904480 1070.131592,546.640869 1070.046143,546.092896 
M891.206665,507.332581 
	C890.850830,482.928497 878.276367,467.340546 856.541382,464.359711 
	C835.747192,461.507874 816.785095,471.253540 808.462280,489.070190 
	C800.000671,507.184052 804.023376,529.552002 818.215576,542.411743 
	C829.508789,552.644470 842.956787,555.429199 857.712708,553.372742 
	C869.468445,551.734497 878.616455,545.776245 886.339233,536.662537 
	C881.131042,532.568359 876.336670,528.799438 871.630188,525.099670 
	C869.286865,527.111023 867.401062,529.013123 865.246033,530.533691 
	C850.056274,541.250916 829.083862,533.162476 827.884583,515.760254 
	C848.960571,515.760254 870.036621,515.760254 891.427002,515.760254 
	C891.235779,512.319092 891.116699,510.175751 891.206665,507.332581 
M708.828186,470.722015 
	C708.873352,471.448608 708.918579,472.175201 708.406860,473.383270 
	C707.928711,473.279358 707.450623,473.175446 706.674377,472.466156 
	C695.343384,463.211090 682.250549,462.611023 669.304565,466.772339 
	C637.259460,477.072876 634.174316,515.098450 647.250793,534.986938 
	C657.183411,550.093811 675.713684,557.389832 693.730042,552.891663 
	C696.536316,551.614990 699.342590,550.338257 702.578674,549.037964 
	C702.880859,548.978088 703.107056,548.813782 703.982483,548.271606 
	C705.288208,547.482300 706.593872,546.693054 707.526001,546.129578 
	C708.479980,548.424866 709.279846,550.349487 710.952026,552.447083 
	C714.137085,552.368408 717.322144,552.289734 721.199341,552.551147 
	C722.962463,552.437439 724.725647,552.323669 726.948975,552.432312 
	C727.278259,552.373840 727.607605,552.315308 728.583313,552.548340 
	C729.064880,551.024414 729.964050,549.500854 729.965454,547.976501 
	C729.987549,524.331360 729.892090,500.686188 729.827271,477.041016 
	C729.817871,473.596039 729.825989,470.151001 729.825989,466.608643 
	C727.615051,466.798431 725.807373,466.953583 723.148682,467.000488 
	C721.434875,467.036346 719.721069,467.072205 717.131653,466.943237 
	C715.049805,466.932373 712.904724,466.626526 710.916504,467.052551 
	C710.094421,467.228638 709.608582,468.973572 708.828186,470.722015 
M277.338989,500.787079 
	C277.826050,500.877625 278.313019,501.046967 278.800171,501.047485 
	C304.946381,501.074738 331.092896,501.033020 357.238373,501.177399 
	C360.224701,501.193878 361.223328,499.862915 362.130310,497.432892 
	C368.528046,480.291321 375.069672,463.203491 381.481201,446.067047 
	C383.244415,441.354523 386.137207,438.444153 391.466705,438.751953 
	C396.467346,439.040771 398.642822,442.293610 399.803833,446.675201 
	C405.292633,467.389221 410.773895,488.105408 416.332825,508.800659 
	C418.324097,516.214050 420.526031,523.570862 423.042053,532.391663 
	C424.621948,529.298279 425.494141,527.734985 426.236023,526.112122 
	C429.003876,520.057556 431.727600,513.982849 434.470642,507.916962 
	C436.281464,503.912567 439.042633,500.321869 443.512634,500.165009 
	C455.151428,499.756653 466.820099,499.802612 478.463623,500.133392 
	C482.762482,500.255524 485.515167,503.470642 485.715485,507.741333 
	C485.915497,512.006042 483.450745,514.989136 479.214355,516.040710 
	C477.302063,516.515381 475.263702,516.612732 473.279083,516.641113 
	C467.118286,516.729370 460.940704,516.970703 454.799408,516.624451 
	C450.827057,516.400452 448.903809,517.775879 447.396942,521.435913 
	C442.140472,534.203430 436.434723,546.785339 431.077362,559.512512 
	C429.118652,564.165771 426.026276,567.143677 420.924805,566.768616 
	C416.032349,566.408813 413.404419,563.035645 412.149841,558.442993 
	C405.754150,535.030396 399.329346,511.625763 392.901337,488.222076 
	C391.966278,484.817657 390.958923,481.433136 389.984985,478.039398 
	C388.076263,479.538910 387.352142,480.948883 386.792206,482.421295 
	C383.541931,490.968506 380.199585,499.484344 377.160522,508.106781 
	C375.632294,512.442688 373.149628,515.675964 368.053436,517.736084 
	C366.231262,517.835449 364.409058,518.020935 362.586884,518.021179 
	C337.006500,518.025146 311.426117,518.003723 285.845734,517.989014 
	C282.917847,517.987305 279.989990,517.988770 277.085266,517.988770 
	C277.085266,530.044067 277.085266,541.487671 276.828217,553.826843 
	C276.820770,566.789978 280.437347,578.752014 287.426361,589.566956 
	C300.229462,609.378662 318.303680,620.516663 343.015106,621.937317 
	C375.976807,621.907837 408.938538,621.878296 442.763855,622.004822 
	C445.404114,621.689636 448.044312,621.373718 450.684662,621.059387 
	C481.090485,617.440125 507.732788,587.942566 507.898682,557.325684 
	C508.081024,523.683105 508.125244,490.037506 507.837128,456.396576 
	C507.781097,449.851898 506.709106,443.077606 504.760925,436.828491 
	C496.105896,409.066071 469.746063,389.016022 441.975952,389.076019 
	C408.683807,389.100769 375.391693,389.125519 341.241394,388.973663 
	C327.299988,389.869720 314.521057,394.261444 303.566559,402.889221 
	C286.139404,416.614838 276.997192,434.643463 276.964752,457.978729 
	C276.994354,471.971222 277.023956,485.963715 277.338989,500.787079 
M908.364197,546.499817 
	C908.364197,559.774597 908.364197,573.049316 908.364197,586.591553 
	C915.599854,586.591553 922.678040,586.591553 930.323364,586.591553 
	C930.323364,572.879333 930.323364,559.226929 930.323364,546.611389 
	C935.757019,548.789673 940.887024,552.000732 946.382996,552.853821 
	C973.183044,557.013672 993.672180,541.345520 997.612549,514.332825 
	C1000.154724,496.905670 991.092224,477.968964 976.012329,469.197357 
	C960.999084,460.464447 943.820923,461.932465 928.963196,473.476257 
	C928.795044,471.028046 928.643982,468.829315 928.493164,466.633087 
	C921.304199,466.633087 914.457214,466.633087 908.364441,466.633087 
	C908.364441,493.242493 908.364441,519.371155 908.364197,546.499817 
M1290.390015,531.183777 
	C1271.408691,540.190125 1254.282471,528.714722 1254.302856,514.904480 
	C1275.715454,514.904480 1297.132202,514.904480 1319.008057,514.904480 
	C1319.008057,511.393158 1319.043579,508.271515 1319.002441,505.150848 
	C1318.661133,479.292908 1300.997803,462.583008 1275.125244,463.626465 
	C1250.673218,464.612640 1232.561646,482.100281 1231.227051,506.725098 
	C1229.949707,530.292786 1245.154419,549.740295 1269.044922,552.644836 
	C1286.356079,554.749573 1301.198242,549.977234 1313.299072,536.467224 
	C1308.360962,532.461182 1303.628540,528.622009 1299.149780,524.988586 
	C1296.170654,527.160522 1293.625977,529.015747 1290.390015,531.183777 
M556.478149,534.019775 
	C568.532837,551.112610 585.446106,556.187317 605.187256,552.826050 
	C618.390442,550.578003 628.665710,543.571533 634.961426,530.928589 
	C631.626892,529.356262 628.791626,528.000244 625.939880,526.680054 
	C622.973389,525.306641 619.990906,523.967773 617.160156,522.679749 
	C606.226440,535.982544 590.882446,538.123596 579.732483,528.287170 
	C568.752808,518.600952 568.029358,501.653961 578.150818,491.235840 
	C588.726624,480.350067 604.149048,481.929840 617.305420,495.511658 
	C622.665344,492.560883 628.116821,489.559723 633.494812,486.599030 
	C625.635254,466.875732 595.416138,457.885986 573.883240,468.351349 
	C550.091064,479.914764 541.983154,509.548950 556.478149,534.019775 
M1206.390015,505.141418 
	C1202.651733,503.742523 1198.910645,502.351227 1195.175903,500.942871 
	C1190.053345,499.011230 1184.679565,497.531158 1179.933960,494.913849 
	C1177.846558,493.762543 1175.740479,490.123840 1176.015381,487.909149 
	C1176.298340,485.631042 1179.129395,482.654205 1181.465820,481.896362 
	C1184.567993,480.890106 1188.596191,480.856201 1191.646362,481.979706 
	C1197.302979,484.063263 1202.539062,487.288544 1208.576538,490.356720 
	C1211.546631,487.080109 1215.305176,482.933533 1219.005371,478.851532 
	C1208.011108,464.839935 1185.487793,459.101166 1169.737061,465.979034 
	C1157.601807,471.278137 1151.296265,484.604828 1155.183472,496.901917 
	C1157.570557,504.453400 1163.109009,509.118866 1170.100586,512.038940 
	C1177.756470,515.236450 1185.620728,517.931030 1193.345459,520.968689 
	C1196.590210,522.244629 1199.285278,524.205444 1198.939697,528.283569 
	C1198.608521,532.190125 1195.958862,534.051331 1192.534058,535.000061 
	C1190.788452,535.483582 1188.965576,535.817810 1187.159546,535.932678 
	C1177.117554,536.571106 1169.211426,532.398804 1163.039307,524.574829 
	C1158.905396,529.153381 1155.044678,533.429260 1151.215210,537.670532 
	C1162.350952,553.759827 1190.113037,558.840942 1207.609131,548.791260 
	C1223.301392,539.777710 1226.197998,513.643921 1206.390015,505.141418 
M1131.293823,425.025665 
	C1125.344727,425.025665 1119.395508,425.025665 1113.384521,425.025665 
	C1113.384521,467.693634 1113.384521,509.893372 1113.384521,552.067383 
	C1120.700073,552.067383 1127.639771,552.067383 1134.983765,552.067383 
	C1134.983765,550.047668 1134.984009,548.250427 1134.983887,546.453125 
	C1134.982422,526.454590 1134.979004,506.456085 1134.979980,486.457581 
	C1134.980713,467.458984 1135.007446,448.460327 1134.955444,429.461884 
	C1134.950317,427.577850 1136.072266,424.709961 1131.293823,425.025665 
M782.125305,486.005890 
	C787.711548,486.005890 793.297852,486.005890 799.202332,486.005890 
	C799.528381,481.067047 799.584778,475.724731 800.324219,470.478699 
	C800.883118,466.512817 799.514038,465.170990 795.751038,464.820648 
	C784.447754,463.768433 774.349609,466.049988 766.225037,475.405212 
	C765.642822,471.789215 765.179016,468.908417 764.726318,466.096863 
	C758.006042,466.096863 751.569763,466.096863 745.153076,466.096863 
	C745.153076,494.889282 745.153076,523.411560 745.153076,551.973999 
	C752.624573,551.973999 759.696472,551.973999 766.913330,551.973999 
	C766.913330,550.345947 766.923889,549.026367 766.911682,547.707031 
	C766.782227,533.728516 766.431519,519.747559 766.585266,505.772156 
	C766.710693,494.363068 770.991943,489.024658 782.125305,486.005890 
z"/>
<path fill="#5868FF" opacity="1.000000" stroke="none" 
	d="
M342.094299,621.845703 
	C318.303680,620.516663 300.229462,609.378662 287.426361,589.566956 
	C280.437347,578.752014 276.820770,566.789978 277.212280,553.063965 
	C277.700897,543.015747 278.045807,533.724182 277.804230,524.447937 
	C277.690948,520.098145 278.864716,518.813843 283.328033,518.849121 
	C310.057190,519.060364 336.788940,518.976379 363.519501,518.890015 
	C365.342346,518.884094 367.162506,518.051270 368.983917,517.603027 
	C373.149628,515.675964 375.632294,512.442688 377.160522,508.106781 
	C380.199585,499.484344 383.541931,490.968506 386.792206,482.421295 
	C387.352142,480.948883 388.076263,479.538910 389.984985,478.039398 
	C390.958923,481.433136 391.966278,484.817657 392.901337,488.222076 
	C399.329346,511.625763 405.754150,535.030396 412.149841,558.442993 
	C413.404419,563.035645 416.032349,566.408813 420.924805,566.768616 
	C426.026276,567.143677 429.118652,564.165771 431.077362,559.512512 
	C436.434723,546.785339 442.140472,534.203430 447.396942,521.435913 
	C448.903809,517.775879 450.827057,516.400452 454.799408,516.624451 
	C460.940704,516.970703 467.118286,516.729370 473.279083,516.641113 
	C475.263702,516.612732 477.302063,516.515381 479.214355,516.040710 
	C483.450745,514.989136 485.915497,512.006042 485.715485,507.741333 
	C485.515167,503.470642 482.762482,500.255524 478.463623,500.133392 
	C466.820099,499.802612 455.151428,499.756653 443.512634,500.165009 
	C439.042633,500.321869 436.281464,503.912567 434.470642,507.916962 
	C431.727600,513.982849 429.003876,520.057556 426.236023,526.112122 
	C425.494141,527.734985 424.621948,529.298279 423.042053,532.391663 
	C420.526031,523.570862 418.324097,516.214050 416.332825,508.800659 
	C410.773895,488.105408 405.292633,467.389221 399.803833,446.675201 
	C398.642822,442.293610 396.467346,439.040771 391.466705,438.751953 
	C386.137207,438.444153 383.244415,441.354523 381.481201,446.067047 
	C375.069672,463.203491 368.528046,480.291321 362.130310,497.432892 
	C361.223328,499.862915 360.224701,501.193878 357.238373,501.177399 
	C331.092896,501.033020 304.946381,501.074738 278.800171,501.047485 
	C278.313019,501.046967 277.826050,500.877625 277.476135,500.071655 
	C277.704681,486.336273 277.815887,473.316315 277.851013,460.296173 
	C277.853912,459.216278 277.342590,458.135040 277.070190,457.054413 
	C276.997192,434.643463 286.139404,416.614838 303.566559,402.889221 
	C314.521057,394.261444 327.299988,389.869720 341.977631,389.327087 
	C343.368500,389.775085 344.023102,389.951996 344.677795,389.952393 
	C376.153961,389.970184 407.630127,389.982025 439.106262,389.943146 
	C440.369354,389.941589 441.631836,389.443512 442.894623,389.176788 
	C469.746063,389.016022 496.105896,409.066071 504.760925,436.828491 
	C506.709106,443.077606 507.781097,449.851898 507.837128,456.396576 
	C508.125244,490.037506 508.081024,523.683105 507.898682,557.325684 
	C507.732788,587.942566 481.090485,617.440125 450.684662,621.059387 
	C448.044312,621.373718 445.404114,621.689636 442.027588,621.656738 
	C440.471283,621.205688 439.651337,621.012878 438.831299,621.012756 
	C407.843109,621.006775 376.854919,621.008972 345.866821,621.062500 
	C344.608887,621.064636 343.351776,621.573120 342.094299,621.845703 
z"/>
<path fill="#050671" opacity="1.000000" stroke="none" 
	d="
M908.364319,545.999756 
	C908.364441,519.371155 908.364441,493.242493 908.364441,466.633087 
	C914.457214,466.633087 921.304199,466.633087 928.493164,466.633087 
	C928.643982,468.829315 928.795044,471.028046 928.963196,473.476257 
	C943.820923,461.932465 960.999084,460.464447 976.012329,469.197357 
	C991.092224,477.968964 1000.154724,496.905670 997.612549,514.332825 
	C993.672180,541.345520 973.183044,557.013672 946.382996,552.853821 
	C940.887024,552.000732 935.757019,548.789673 930.323364,546.611389 
	C930.323364,559.226929 930.323364,572.879333 930.323364,586.591553 
	C922.678040,586.591553 915.599854,586.591553 908.364197,586.591553 
	C908.364197,573.049316 908.364197,559.774597 908.364319,545.999756 
M929.689026,510.478790 
	C928.612427,520.302551 930.851135,528.839233 941.116028,532.170227 
	C946.080139,533.781128 952.072510,534.221497 957.144592,533.112549 
	C970.368408,530.221252 977.614624,516.570984 974.220215,502.771759 
	C970.925415,489.377502 958.106323,481.561127 944.280884,484.516418 
	C934.961426,486.508514 929.784363,492.905731 929.724060,502.507233 
	C929.709412,504.835815 929.700806,507.164429 929.689026,510.478790 
z"/>
<path fill="#020370" opacity="1.000000" stroke="none" 
	d="
M692.982605,552.844238 
	C675.713684,557.389832 657.183411,550.093811 647.250793,534.986938 
	C634.174316,515.098450 637.259460,477.072876 669.304565,466.772339 
	C682.250549,462.611023 695.343384,463.211090 706.972717,473.048706 
	C707.835327,473.388123 708.399597,473.144989 708.963806,472.901794 
	C708.918579,472.175201 708.873352,471.448608 709.217407,470.167969 
	C712.406860,468.778625 715.207092,467.943329 718.007263,467.108063 
	C719.721069,467.072205 721.434875,467.036346 723.876343,467.289551 
	C727.182251,467.813995 728.163635,469.050934 728.148376,471.796570 
	C727.999329,498.616211 727.987671,525.436646 727.936890,552.256836 
	C727.607605,552.315308 727.278259,552.373840 726.226929,552.202820 
	C723.838928,552.052551 722.173096,552.131775 720.507202,552.211060 
	C717.322144,552.289734 714.137085,552.368408 710.460938,551.929565 
	C709.628845,549.032349 709.287842,546.652527 708.946777,544.272766 
	C708.411682,544.130493 707.876648,543.988220 707.341553,543.845947 
	C705.980164,545.412292 704.618713,546.978577 703.257324,548.544922 
	C703.107056,548.813782 702.880859,548.978088 701.976196,549.024414 
	C698.576721,550.288635 695.779663,551.566406 692.982605,552.844238 
M707.469849,499.517731 
	C705.353699,493.567993 701.572266,489.167725 695.623291,486.783356 
	C686.714233,483.212555 676.372253,485.446655 669.861328,492.349152 
	C662.636475,500.008514 661.046570,511.657990 665.861572,521.655640 
	C670.066833,530.387451 678.995789,535.433350 688.703491,534.564026 
	C701.196106,533.445374 707.958496,526.193237 707.967102,513.806519 
	C707.970215,509.313416 707.809509,504.820160 707.469849,499.517731 
z"/>
<path fill="#040570" opacity="1.000000" stroke="none" 
	d="
M1290.735596,531.027405 
	C1293.625977,529.015747 1296.170654,527.160522 1299.149780,524.988586 
	C1303.628540,528.622009 1308.360962,532.461182 1313.299072,536.467224 
	C1301.198242,549.977234 1286.356079,554.749573 1269.044922,552.644836 
	C1245.154419,549.740295 1229.949707,530.292786 1231.227051,506.725098 
	C1232.561646,482.100281 1250.673218,464.612640 1275.125244,463.626465 
	C1300.997803,462.583008 1318.661133,479.292908 1319.002441,505.150848 
	C1319.043579,508.271515 1319.008057,511.393158 1319.008057,514.904480 
	C1297.132202,514.904480 1275.715454,514.904480 1254.302856,514.904480 
	C1254.282471,528.714722 1271.408691,540.190125 1290.735596,531.027405 
M1274.713257,480.146332 
	C1262.970703,481.513245 1255.042236,489.138000 1254.993896,499.048126 
	C1268.932983,499.048126 1282.870605,499.048126 1296.830200,499.048126 
	C1295.857910,487.301025 1288.541748,480.886749 1274.713257,480.146332 
z"/>
<path fill="#050671" opacity="1.000000" stroke="none" 
	d="
M826.941650,515.814758 
	C829.083862,533.162476 850.056274,541.250916 865.246033,530.533691 
	C867.401062,529.013123 869.286865,527.111023 871.630188,525.099670 
	C876.336670,528.799438 881.131042,532.568359 886.339233,536.662537 
	C878.616455,545.776245 869.468445,551.734497 857.712708,553.372742 
	C842.956787,555.429199 829.508789,552.644470 818.215576,542.411743 
	C804.023376,529.552002 800.000671,507.184052 808.462280,489.070190 
	C816.785095,471.253540 835.747192,461.507874 856.541382,464.359711 
	C878.276367,467.340546 890.850830,482.928497 890.811523,507.947144 
	C890.134766,510.164703 889.853149,511.767639 889.458374,514.014893 
	C868.292175,514.014893 847.131714,514.014893 825.418762,514.014893 
	C826.303528,515.060547 826.622559,515.437683 826.941650,515.814758 
M857.050598,482.038849 
	C841.810974,477.849976 829.132751,485.407593 827.352295,499.778198 
	C841.397156,499.778198 855.433472,499.778198 869.658142,499.778198 
	C868.731873,491.523712 865.451172,485.415985 857.050598,482.038849 
z"/>
<path fill="#020370" opacity="1.000000" stroke="none" 
	d="
M1082.986206,551.994629 
	C1080.615723,552.049500 1078.245117,552.104370 1075.248291,551.732910 
	C1074.165649,548.580322 1073.709106,545.854126 1073.252686,543.127930 
	C1072.858521,543.049194 1072.464355,542.970520 1072.070068,542.891785 
	C1071.496094,544.045288 1070.921997,545.198792 1070.347900,546.352295 
	C1070.347900,546.352295 1070.046143,546.092896 1069.912598,546.238159 
	C1069.601196,546.677368 1069.423340,546.971252 1069.245483,547.265137 
	C1069.245483,547.265137 1069.015137,547.004517 1068.760010,547.111023 
	C1061.567749,550.650330 1054.398804,552.977417 1046.485229,552.169922 
	C1045.671753,552.086853 1044.766968,552.897766 1043.904541,553.293823 
	C1028.219727,551.871765 1015.589111,541.368103 1014.236694,525.784302 
	C1012.531128,506.130096 1012.821167,486.302734 1012.241821,466.257965 
	C1019.967163,466.257965 1027.204346,466.257965 1034.906006,466.257965 
	C1034.906006,474.283356 1034.892578,482.049866 1034.909790,489.816345 
	C1034.928345,498.147217 1034.873047,506.480011 1035.035400,514.808350 
	C1035.260864,526.362122 1042.974121,534.178528 1054.001831,534.244019 
	C1065.342285,534.311401 1072.692505,527.088501 1072.891724,514.981384 
	C1073.149292,499.323151 1072.974976,483.657837 1073.509766,467.492493 
	C1078.849365,466.969910 1083.672852,467.103271 1088.479492,466.878387 
	C1091.810303,466.722565 1093.180664,467.646912 1093.158325,471.292542 
	C1092.992920,498.196289 1093.018677,525.101196 1092.984253,552.005737 
	C1091.918335,552.045898 1090.852295,552.086060 1088.967529,551.977112 
	C1086.427979,551.883545 1084.707031,551.939087 1082.986206,551.994629 
z"/>
<path fill="#050671" opacity="1.000000" stroke="none" 
	d="
M556.279907,533.717651 
	C541.983154,509.548950 550.091064,479.914764 573.883240,468.351349 
	C595.416138,457.885986 625.635254,466.875732 633.494812,486.599030 
	C628.116821,489.559723 622.665344,492.560883 617.305420,495.511658 
	C604.149048,481.929840 588.726624,480.350067 578.150818,491.235840 
	C568.029358,501.653961 568.752808,518.600952 579.732483,528.287170 
	C590.882446,538.123596 606.226440,535.982544 617.160156,522.679749 
	C619.990906,523.967773 622.973389,525.306641 625.939880,526.680054 
	C628.791626,528.000244 631.626892,529.356262 634.961426,530.928589 
	C628.665710,543.571533 618.390442,550.578003 605.187256,552.826050 
	C585.446106,556.187317 568.532837,551.112610 556.279907,533.717651 
z"/>
<path fill="#040570" opacity="1.000000" stroke="none" 
	d="
M1206.718018,505.311401 
	C1226.197998,513.643921 1223.301392,539.777710 1207.609131,548.791260 
	C1190.113037,558.840942 1162.350952,553.759827 1151.215210,537.670532 
	C1155.044678,533.429260 1158.905396,529.153381 1163.039307,524.574829 
	C1169.211426,532.398804 1177.117554,536.571106 1187.159546,535.932678 
	C1188.965576,535.817810 1190.788452,535.483582 1192.534058,535.000061 
	C1195.958862,534.051331 1198.608521,532.190125 1198.939697,528.283569 
	C1199.285278,524.205444 1196.590210,522.244629 1193.345459,520.968689 
	C1185.620728,517.931030 1177.756470,515.236450 1170.100586,512.038940 
	C1163.109009,509.118866 1157.570557,504.453400 1155.183472,496.901917 
	C1151.296265,484.604828 1157.601807,471.278137 1169.737061,465.979034 
	C1185.487793,459.101166 1208.011108,464.839935 1219.005371,478.851532 
	C1215.305176,482.933533 1211.546631,487.080109 1208.576538,490.356720 
	C1202.539062,487.288544 1197.302979,484.063263 1191.646362,481.979706 
	C1188.596191,480.856201 1184.567993,480.890106 1181.465820,481.896362 
	C1179.129395,482.654205 1176.298340,485.631042 1176.015381,487.909149 
	C1175.740479,490.123840 1177.846558,493.762543 1179.933960,494.913849 
	C1184.679565,497.531158 1190.053345,499.011230 1195.175903,500.942871 
	C1198.910645,502.351227 1202.651733,503.742523 1206.718018,505.311401 
z"/>
<path fill="#020370" opacity="1.000000" stroke="none" 
	d="
M1131.772949,425.025330 
	C1136.072266,424.709961 1134.950317,427.577850 1134.955444,429.461884 
	C1135.007446,448.460327 1134.980713,467.458984 1134.979980,486.457581 
	C1134.979004,506.456085 1134.982422,526.454590 1134.983887,546.453125 
	C1134.984009,548.250427 1134.983765,550.047668 1134.983765,552.067383 
	C1127.639771,552.067383 1120.700073,552.067383 1113.384521,552.067383 
	C1113.384521,509.893372 1113.384521,467.693634 1113.384521,425.025665 
	C1119.395508,425.025665 1125.344727,425.025665 1131.772949,425.025330 
z"/>
<path fill="#040570" opacity="1.000000" stroke="none" 
	d="
M781.698547,486.073181 
	C770.991943,489.024658 766.710693,494.363068 766.585266,505.772156 
	C766.431519,519.747559 766.782227,533.728516 766.911682,547.707031 
	C766.923889,549.026367 766.913330,550.345947 766.913330,551.973999 
	C759.696472,551.973999 752.624573,551.973999 745.153076,551.973999 
	C745.153076,523.411560 745.153076,494.889282 745.153076,466.096863 
	C751.569763,466.096863 758.006042,466.096863 764.726318,466.096863 
	C765.179016,468.908417 765.642822,471.789215 766.225037,475.405212 
	C774.349609,466.049988 784.447754,463.768433 795.751038,464.820648 
	C799.514038,465.170990 800.883118,466.512817 800.324219,470.478699 
	C799.584778,475.724731 799.528381,481.067047 799.202332,486.005890 
	C793.297852,486.005890 787.711548,486.005890 781.698547,486.073181 
z"/>
<path fill="#282C6E" opacity="1.000000" stroke="none" 
	d="
M1093.231323,552.127625 
	C1093.018677,525.101196 1092.992920,498.196289 1093.158325,471.292542 
	C1093.180664,467.646912 1091.810303,466.722565 1088.479492,466.878387 
	C1083.672852,467.103271 1078.849365,466.969910 1073.573120,467.032410 
	C1073.636597,466.637207 1074.155151,465.824615 1074.684204,465.817688 
	C1081.301270,465.730896 1087.919800,465.760834 1094.932251,465.760834 
	C1094.932251,469.329437 1094.926758,472.759003 1094.933105,476.188568 
	C1094.978394,500.443115 1095.046875,524.697693 1095.005005,548.952087 
	C1095.003052,550.052124 1094.009888,551.150391 1093.231323,552.127625 
z"/>
<path fill="#282C6E" opacity="1.000000" stroke="none" 
	d="
M728.260132,552.402588 
	C727.987671,525.436646 727.999329,498.616211 728.148376,471.796570 
	C728.163635,469.050934 727.182251,467.813995 724.301880,467.343689 
	C725.807373,466.953583 727.615051,466.798431 729.825989,466.608643 
	C729.825989,470.151001 729.817871,473.596039 729.827271,477.041016 
	C729.892090,500.686188 729.987549,524.331360 729.965454,547.976501 
	C729.964050,549.500854 729.064880,551.024414 728.260132,552.402588 
z"/>
<path fill="#1326FF" opacity="1.000000" stroke="none" 
	d="
M368.518677,517.669556 
	C367.162506,518.051270 365.342346,518.884094 363.519501,518.890015 
	C336.788940,518.976379 310.057190,519.060364 283.328033,518.849121 
	C278.864716,518.813843 277.690948,520.098145 277.804230,524.447937 
	C278.045807,533.724182 277.700897,543.015747 277.340790,552.616150 
	C277.085266,541.487671 277.085266,530.044067 277.085266,517.988770 
	C279.989990,517.988770 282.917847,517.987305 285.845734,517.989014 
	C311.426117,518.003723 337.006500,518.025146 362.586884,518.021179 
	C364.409058,518.020935 366.231262,517.835449 368.518677,517.669556 
z"/>
<path fill="#020370" opacity="1.000000" stroke="none" 
	d="
M827.413086,515.787476 
	C826.622559,515.437683 826.303528,515.060547 825.418762,514.014893 
	C847.131714,514.014893 868.292175,514.014893 889.458374,514.014893 
	C889.853149,511.767639 890.134766,510.164703 890.706970,508.297058 
	C891.116699,510.175751 891.235779,512.319092 891.427002,515.760254 
	C870.036621,515.760254 848.960571,515.760254 827.413086,515.787476 
z"/>
<path fill="#1326FF" opacity="1.000000" stroke="none" 
	d="
M442.435303,389.126404 
	C441.631836,389.443512 440.369354,389.941589 439.106262,389.943146 
	C407.630127,389.982025 376.153961,389.970184 344.677795,389.952393 
	C344.023102,389.951996 343.368500,389.775085 342.406708,389.415405 
	C375.391693,389.125519 408.683807,389.100769 442.435303,389.126404 
z"/>
<path fill="#1326FF" opacity="1.000000" stroke="none" 
	d="
M342.554688,621.891479 
	C343.351776,621.573120 344.608887,621.064636 345.866821,621.062500 
	C376.854919,621.008972 407.843109,621.006775 438.831299,621.012756 
	C439.651337,621.012878 440.471283,621.205688 441.595764,621.578735 
	C408.938538,621.878296 375.976807,621.907837 342.554688,621.891479 
z"/>
<path fill="#282C6E" opacity="1.000000" stroke="none" 
	d="
M1044.263062,553.503174 
	C1044.766968,552.897766 1045.671753,552.086853 1046.485229,552.169922 
	C1054.398804,552.977417 1061.567749,550.650330 1068.881226,547.235962 
	C1062.073486,553.328552 1053.593018,554.456970 1044.263062,553.503174 
z"/>
<path fill="#1326FF" opacity="1.000000" stroke="none" 
	d="
M277.017456,457.516571 
	C277.342590,458.135040 277.853912,459.216278 277.851013,460.296173 
	C277.815887,473.316315 277.704681,486.336273 277.333435,499.656250 
	C277.023956,485.963715 276.994354,471.971222 277.017456,457.516571 
z"/>
<path fill="#282C6E" opacity="1.000000" stroke="none" 
	d="
M703.619873,548.408264 
	C704.618713,546.978577 705.980164,545.412292 707.341553,543.845947 
	C707.876648,543.988220 708.411682,544.130493 708.946777,544.272766 
	C709.287842,546.652527 709.628845,549.032349 710.024841,551.843140 
	C709.279846,550.349487 708.479980,548.424866 707.526001,546.129578 
	C706.593872,546.693054 705.288208,547.482300 703.619873,548.408264 
z"/>
<path fill="#282C6E" opacity="1.000000" stroke="none" 
	d="
M1070.686035,546.190186 
	C1070.921997,545.198792 1071.496094,544.045288 1072.070068,542.891785 
	C1072.464355,542.970520 1072.858521,543.049194 1073.252686,543.127930 
	C1073.709106,545.854126 1074.165649,548.580322 1074.808105,551.666870 
	C1070.911133,552.152649 1073.723755,549.020691 1072.926270,547.583130 
	C1072.469971,546.760681 1073.751343,544.041931 1070.686035,546.190186 
z"/>
<path fill="#282C6E" opacity="1.000000" stroke="none" 
	d="
M693.356323,552.867920 
	C695.779663,551.566406 698.576721,550.288635 701.761353,549.036133 
	C699.342590,550.338257 696.536316,551.614990 693.356323,552.867920 
z"/>
<path fill="#282C6E" opacity="1.000000" stroke="none" 
	d="
M717.569458,467.025635 
	C715.207092,467.943329 712.406860,468.778625 709.288208,469.809448 
	C709.608582,468.973572 710.094421,467.228638 710.916504,467.052551 
	C712.904724,466.626526 715.049805,466.932373 717.569458,467.025635 
z"/>
<path fill="#282C6E" opacity="1.000000" stroke="none" 
	d="
M1083.306641,552.104858 
	C1084.707031,551.939087 1086.427979,551.883545 1088.572510,551.909607 
	C1087.206543,552.065857 1085.416748,552.140442 1083.306641,552.104858 
z"/>
<path fill="#282C6E" opacity="1.000000" stroke="none" 
	d="
M720.853271,552.381104 
	C722.173096,552.131775 723.838928,552.052551 725.996826,552.091675 
	C724.725647,552.323669 722.962463,552.437439 720.853271,552.381104 
z"/>
<path fill="#282C6E" opacity="1.000000" stroke="none" 
	d="
M708.685303,473.142548 
	C708.399597,473.144989 707.835327,473.388123 707.121765,473.351379 
	C707.450623,473.175446 707.928711,473.279358 708.685303,473.142548 
z"/>
<path fill="#282C6E" opacity="1.000000" stroke="none" 
	d="
M1069.495605,547.216553 
	C1069.423340,546.971252 1069.601196,546.677368 1070.051758,546.380371 
	C1070.131592,546.640869 1069.938721,546.904480 1069.495605,547.216553 
z"/>
<path fill="#FCFCFD" opacity="1.000000" stroke="none" 
	d="
M929.689209,509.985901 
	C929.700806,507.164429 929.709412,504.835815 929.724060,502.507233 
	C929.784363,492.905731 934.961426,486.508514 944.280884,484.516418 
	C958.106323,481.561127 970.925415,489.377502 974.220215,502.771759 
	C977.614624,516.570984 970.368408,530.221252 957.144592,533.112549 
	C952.072510,534.221497 946.080139,533.781128 941.116028,532.170227 
	C930.851135,528.839233 928.612427,520.302551 929.689209,509.985901 
z"/>
<path fill="#FCFCFD" opacity="1.000000" stroke="none" 
	d="
M707.596741,499.922363 
	C707.809509,504.820160 707.970215,509.313416 707.967102,513.806519 
	C707.958496,526.193237 701.196106,533.445374 688.703491,534.564026 
	C678.995789,535.433350 670.066833,530.387451 665.861572,521.655640 
	C661.046570,511.657990 662.636475,500.008514 669.861328,492.349152 
	C676.372253,485.446655 686.714233,483.212555 695.623291,486.783356 
	C701.572266,489.167725 705.353699,493.567993 707.596741,499.922363 
z"/>
<path fill="#FCFCFD" opacity="1.000000" stroke="none" 
	d="
M1275.140015,480.128937 
	C1288.541748,480.886749 1295.857910,487.301025 1296.830200,499.048126 
	C1282.870605,499.048126 1268.932983,499.048126 1254.993896,499.048126 
	C1255.042236,489.138000 1262.970703,481.513245 1275.140015,480.128937 
z"/>
<path fill="#FCFCFD" opacity="1.000000" stroke="none" 
	d="
M857.430420,482.160522 
	C865.451172,485.415985 868.731873,491.523712 869.658142,499.778198 
	C855.433472,499.778198 841.397156,499.778198 827.352295,499.778198 
	C829.132751,485.407593 841.810974,477.849976 857.430420,482.160522 
z"/>
</svg>